<?xml version="1.0" standalone="no"?>
<!DOCTYPE svg PUBLIC "-//W3C//DTD SVG 20010904//EN"
 "http://www.w3.org/TR/2001/REC-SVG-20010904/DTD/svg10.dtd">
<svg version="1.0" xmlns="http://www.w3.org/2000/svg"
 width="1200.000000pt" height="545.000000pt" viewBox="0 0 1200.000000 545.000000"
 preserveAspectRatio="xMidYMid meet">
<metadata>
Created by potrace 1.15, written by Peter Selinger 2001-2017
</metadata>
<g transform="translate(0.000000,545.000000) scale(0.100000,-0.100000)"
fill="#000000" stroke="none">
<path d="M7942 5363 c-26 -105 -27 -114 -6 -106 13 5 13 8 2 15 -9 6 -6 7 9 3
14 -4 25 0 31 10 5 9 12 16 15 16 21 -3 27 0 21 11 -4 6 -3 8 2 5 15 -9 90 38
85 54 -2 8 -7 28 -10 44 -6 29 -9 30 -67 33 l-60 3 -22 -88z"/>
<path d="M3588 5085 c-20 -14 -41 -25 -45 -25 -5 0 -32 -16 -61 -36 -36 -24
-52 -40 -48 -50 3 -8 2 -13 -3 -10 -16 10 -24 -47 -22 -159 2 -60 4 -112 6
-114 3 -2 11 2 20 9 11 9 15 34 15 104 0 86 10 130 24 108 3 -5 6 -115 6 -245
1 -129 4 -238 7 -241 4 -3 15 1 25 11 16 14 18 33 18 165 0 125 2 148 15 148
13 0 15 -23 15 -147 0 -145 0 -146 20 -128 19 17 20 31 20 272 0 218 2 253 15
253 12 0 15 -17 15 -90 0 -49 4 -90 8 -90 5 0 16 8 25 18 14 15 17 40 17 126
0 150 -17 172 -92 121z"/>
<path d="M5415 5049 c-249 -143 -246 -141 -228 -154 36 -24 301 -175 308 -175
4 0 83 44 176 97 l169 97 -43 27 c-23 14 -64 38 -92 53 -27 16 -80 46 -117 67
-36 21 -70 39 -75 39 -4 0 -48 -23 -98 -51z"/>
<path d="M4775 4786 c-33 -12 -91 -39 -130 -61 -85 -49 -90 -51 -81 -36 4 6 0
14 -8 17 -13 5 -121 -52 -333 -178 -38 -23 -42 -35 -12 -40 16 -2 6 -12 -43
-39 -393 -226 -478 -275 -508 -294 -51 -32 -210 -125 -214 -125 -2 0 -81 -45
-177 -101 -96 -55 -222 -128 -281 -162 -58 -34 -104 -66 -101 -71 3 -5 1 -6
-6 -2 -14 9 -122 -55 -171 -101 l-35 -34 1 -144 c1 -80 5 -156 8 -169 5 -22
-1 -29 -49 -58 -74 -44 -73 -83 3 -122 17 -9 32 -23 32 -31 0 -8 5 -15 10 -15
6 0 34 -15 63 -33 53 -34 124 -69 165 -81 12 -4 84 -44 160 -88 75 -44 153
-90 172 -101 95 -53 298 -172 320 -187 14 -9 52 -32 85 -49 33 -18 96 -54 140
-80 93 -56 207 -123 625 -366 168 -98 337 -196 375 -219 39 -22 79 -46 90 -52
30 -16 526 -304 553 -321 12 -8 20 -17 18 -22 -6 -9 168 -111 188 -111 6 0 17
-5 24 -12 6 -6 21 -13 32 -15 11 -2 37 -14 58 -27 20 -13 129 -77 242 -142
113 -65 232 -135 265 -156 113 -71 194 -118 247 -145 29 -15 93 -50 142 -80
49 -29 90 -53 92 -53 2 0 47 -26 101 -58 312 -185 374 -219 448 -238 72 -20
198 -17 275 5 64 18 84 27 190 91 30 18 117 66 194 107 76 41 153 84 170 97
17 13 96 61 176 106 80 46 186 107 235 135 85 50 184 99 195 97 3 0 14 -4 25
-8 17 -7 18 -6 7 8 -11 14 -10 18 7 27 11 6 25 17 33 24 14 14 210 127 220
127 10 0 152 82 158 91 12 17 268 155 283 151 4 -1 15 5 25 13 43 38 84 66
184 123 60 34 112 62 118 62 5 0 10 9 10 19 0 11 2 25 5 33 3 8 -17 25 -51 46
-31 17 -59 32 -62 32 -4 0 -20 -13 -35 -30 -16 -16 -59 -46 -95 -67 -37 -20
-78 -44 -92 -53 -14 -9 -50 -31 -80 -47 -30 -17 -140 -80 -245 -140 -104 -61
-275 -159 -380 -220 -104 -60 -368 -212 -585 -338 -493 -285 -524 -302 -585
-323 -73 -25 -263 -24 -330 2 -27 11 -53 22 -57 25 -7 6 -15 210 -7 212 2 0
18 -5 34 -12 50 -20 147 -38 202 -39 123 0 179 21 431 167 130 75 347 200 482
278 135 78 337 195 450 260 113 65 246 142 295 170 571 328 584 337 605 401
16 47 -9 115 -53 148 -18 13 -255 153 -527 311 -272 159 -555 323 -628 366
-116 68 -137 77 -155 68 -12 -6 -84 -48 -159 -93 l-138 -81 0 -112 c0 -62 2
-113 5 -113 3 0 38 19 78 41 179 103 225 129 233 129 4 0 41 -20 83 -44 42
-25 99 -58 127 -73 120 -66 394 -228 394 -233 0 -4 -289 -174 -469 -275 -20
-11 -56 -32 -81 -47 -77 -44 -686 -396 -885 -511 -104 -60 -262 -151 -350
-202 -232 -135 -195 -129 -327 -53 -62 35 -192 110 -288 167 -96 56 -303 177
-460 268 -157 91 -422 245 -590 343 -168 98 -539 314 -825 480 -286 166 -605
352 -710 413 -104 61 -208 123 -230 137 -22 15 -79 49 -127 75 -49 26 -88 51
-88 55 0 5 9 12 20 15 11 3 20 11 20 16 0 6 5 7 10 4 6 -3 10 -2 10 3 0 4 17
17 38 29 89 49 308 178 320 190 6 6 21 14 31 18 25 8 29 28 20 100 -4 33 -8
97 -8 143 l-1 83 -26 -20 c-53 -41 -154 -19 -154 34 0 31 25 44 89 46 37 2 56
-3 71 -16 24 -22 27 -5 4 29 -14 22 -13 27 4 60 15 28 19 52 17 98 -3 55 -6
62 -34 79 -45 27 -42 55 11 92 12 8 18 27 20 60 0 26 3 47 6 47 6 0 130 -69
174 -97 21 -12 43 -23 49 -23 7 0 44 19 83 41 205 120 240 139 247 139 5 0 9
-63 9 -141 l0 -140 53 29 c28 16 96 55 150 86 53 31 103 59 110 62 10 4 205
-98 236 -123 10 -8 -32 -36 -194 -129 -203 -116 -268 -153 -317 -183 -38 -23
-38 -24 -38 -87 0 -35 2 -64 4 -64 2 0 24 12 49 26 42 23 48 24 69 10 22 -14
32 -10 196 85 95 55 177 97 181 95 4 -3 8 -43 9 -89 l2 -83 -95 -54 c-52 -30
-95 -58 -95 -62 0 -4 31 -26 70 -49 l70 -41 102 57 c90 50 300 172 366 212 21
13 22 19 22 158 0 80 4 145 8 145 5 0 19 -11 32 -25 38 -40 35 -20 -4 28 l-35
43 -3 114 -3 115 -116 68 -117 68 -50 -30 c-27 -17 -52 -31 -56 -31 -3 0 -6
78 -6 174 l0 174 -62 21 c-86 29 -229 28 -313 -3z"/>
<path d="M7100 4369 c-102 -60 -186 -112 -187 -116 -3 -11 326 -199 340 -195
7 2 9 0 5 -4 -4 -4 -3 -13 3 -21 9 -9 8 -13 0 -13 -7 0 -10 -18 -9 -47 l1 -48
6 44 c4 27 12 46 21 48 13 4 13 3 1 -5 -10 -8 -13 -26 -9 -74 3 -34 3 -55 1
-45 -3 9 -8 17 -12 17 -4 0 -7 -73 -7 -162 0 -90 2 -139 4 -110 2 29 7 50 12
47 6 -4 7 1 3 11 -4 12 -3 15 5 10 8 -5 12 34 15 146 l3 153 2 -157 c1 -97 6
-158 12 -158 6 0 10 60 10 160 0 157 0 161 23 170 18 7 13 9 -26 9 -40 1 -47
4 -45 19 4 23 39 41 59 31 17 -9 29 -3 29 14 0 5 -8 6 -17 2 -13 -4 -15 -3 -7
5 8 8 19 8 38 0 32 -12 60 -12 31 0 -19 7 -18 9 8 19 15 6 27 15 27 21 0 6
-11 3 -25 -6 -14 -9 -28 -14 -31 -11 -3 3 7 12 24 21 22 11 32 12 41 3 8 -8
11 -8 11 2 0 7 4 10 9 7 5 -4 17 -3 27 1 15 6 15 7 1 18 -14 10 -13 12 4 23
10 7 19 8 19 3 0 -5 -6 -12 -12 -14 -7 -3 -1 -6 13 -6 29 -1 87 48 69 59 -6 4
0 12 15 20 31 16 31 21 3 39 -62 39 -312 181 -317 180 -3 0 -89 -50 -191 -110z
m292 -7 c45 -20 78 -60 78 -96 0 -27 -50 -74 -97 -90 -113 -39 -266 -2 -293
70 -41 106 163 182 312 116z"/>
<path d="M7173 4340 c-114 -51 -50 -153 97 -152 115 0 177 54 140 121 -25 48
-161 66 -237 31z"/>
<path d="M5870 4343 c1 -4 23 -33 50 -63 28 -30 50 -60 50 -67 0 -6 -22 -24
-50 -39 -45 -25 -64 -44 -41 -44 4 0 25 -11 44 -25 20 -13 56 -35 79 -48 24
-14 84 -48 133 -77 50 -29 125 -73 168 -97 43 -24 97 -56 120 -70 23 -15 71
-43 107 -63 36 -20 125 -72 198 -114 73 -42 139 -79 146 -82 11 -4 14 15 14
94 0 55 -3 104 -7 109 -5 8 -149 94 -246 147 -11 6 -31 18 -45 27 -32 20 -663
389 -702 410 -10 5 -18 6 -18 2z"/>
<path d="M7626 4210 c-4 -14 -10 -38 -12 -55 -3 -28 -2 -28 6 -5 5 17 8 -2 7
-60 0 -83 -1 -84 -7 -25 -4 36 -7 -33 -8 -173 -1 -153 1 -231 8 -227 6 4 10
-8 10 -29 0 -20 -3 -36 -7 -36 -12 1 -48 30 -49 40 -1 6 -2 13 -3 18 0 4 -14
7 -30 7 -16 0 -33 -3 -37 -7 -4 -5 6 -8 23 -8 18 0 33 -6 36 -15 8 -20 -47
-58 -73 -50 -14 5 -20 2 -20 -9 0 -9 -7 -16 -15 -16 -8 0 -15 -4 -15 -10 0 -5
-7 -10 -16 -10 -8 0 -13 -4 -10 -8 3 -5 -8 -16 -25 -26 -16 -9 -29 -14 -29
-11 0 9 -104 -65 -108 -77 -6 -13 -32 -38 -42 -38 -4 0 -10 9 -13 19 -2 10
-14 24 -26 30 -20 11 -21 10 -21 -43 0 -44 4 -57 19 -66 28 -15 31 -13 31 20
0 17 3 30 7 30 17 0 51 -44 46 -59 -4 -12 -3 -13 5 -2 8 10 14 11 28 1 14 -8
14 -10 3 -7 -11 4 -16 0 -15 -11 0 -9 -5 -16 -11 -15 -7 2 -13 -6 -13 -17 0
-18 3 -19 20 -10 11 6 20 18 20 27 0 9 3 13 8 9 7 -8 8 -13 11 -42 1 -11 7
-13 21 -9 10 3 29 1 41 -5 18 -10 21 -18 17 -61 -3 -26 -2 -46 3 -44 4 3 9 0
11 -5 2 -7 16 -5 41 5 l37 15 0 -28 c0 -33 17 -50 76 -78 l41 -20 49 28 c27
15 54 28 59 28 6 0 9 -26 7 -64 l-4 -64 31 -7 c17 -4 31 -13 31 -20 0 -33 45
-25 78 14 10 12 12 7 12 -32 0 -26 4 -47 10 -47 5 0 8 13 6 29 -2 23 2 31 21
40 13 6 22 7 19 2 -3 -5 1 -12 10 -15 12 -5 15 -17 12 -51 -2 -31 1 -45 9 -45
7 0 13 -4 13 -10 0 -5 16 -2 35 7 29 14 35 22 35 49 0 27 3 31 19 27 18 -5
245 117 310 166 l23 18 -26 51 c-26 52 -43 66 -151 128 -27 15 -165 94 -305
175 l-255 146 -5 334 c-3 206 -8 324 -14 309z"/>
<path d="M5915 3942 c-57 -27 -91 -66 -116 -131 -18 -48 -20 -70 -16 -161 6
-136 23 -183 176 -491 110 -223 183 -396 197 -468 6 -26 3 -29 -34 -34 -95
-16 -58 -57 52 -58 74 -1 113 8 120 27 6 16 -30 34 -65 34 -16 0 -19 4 -13 22
20 63 98 150 216 239 112 86 141 130 153 239 31 266 -179 636 -432 762 -82 40
-178 48 -238 20z"/>
<path d="M8175 3866 c-63 -24 -81 -50 -51 -75 13 -11 22 -9 52 8 19 12 40 18
46 15 11 -7 6 -194 -6 -225 -4 -8 -31 -24 -62 -34 -30 -10 -57 -22 -60 -27 -7
-10 14 -48 27 -48 6 0 8 4 5 9 -4 5 2 7 12 5 9 -3 38 4 64 16 44 19 46 22 53
70 12 85 20 79 72 -56 17 -42 19 -62 12 -119 -8 -65 -2 -95 21 -95 4 0 12 30
17 66 9 59 7 73 -15 132 -21 57 -25 86 -26 194 -1 112 -3 130 -22 155 -27 36
-63 39 -139 9z"/>
<path d="M10112 3618 c-8 -8 -12 -52 -12 -133 0 -105 2 -124 18 -138 10 -10
22 -14 25 -10 4 3 7 46 7 95 0 52 4 88 10 88 6 0 10 -89 10 -248 0 -208 2
-251 16 -270 29 -42 35 -25 34 111 -1 166 -2 157 10 157 6 0 10 -56 10 -148 0
-132 2 -151 18 -165 10 -10 22 -17 25 -17 4 0 7 110 7 245 0 211 2 245 15 245
12 0 15 -18 15 -99 0 -76 3 -101 15 -111 9 -7 19 -10 23 -6 4 4 7 63 6 130 -1
152 -8 162 -139 235 -51 28 -94 51 -97 51 -2 0 -9 -5 -16 -12z"/>
<path d="M1125 3494 c-13 -7 -27 -9 -31 -6 -4 4 -4 -1 -1 -10 3 -9 2 -18 -3
-20 -12 -4 -22 -98 -11 -98 5 0 6 -11 3 -25 -4 -24 5 -31 32 -26 5 1 4 -5 -3
-13 -11 -13 -7 -23 19 -63 18 -26 44 -58 58 -69 l27 -22 -6 -108 c-6 -105 -2
-123 24 -124 5 0 7 49 5 108 -3 92 -1 108 12 107 9 0 20 -4 26 -8 15 -9 24 1
18 21 -3 10 2 6 10 -8 8 -14 15 -19 16 -11 0 8 6 11 16 7 8 -3 12 -2 9 4 -3 6
0 13 9 16 8 3 12 12 9 20 -3 8 0 14 5 14 18 0 0 131 -22 160 -6 8 -20 30 -30
49 -22 40 -52 72 -60 64 -3 -3 -8 2 -12 11 -13 33 -80 50 -119 30z"/>
<path d="M4221 3397 c-7 -24 -11 -70 -9 -103 2 -47 7 -61 23 -70 11 -6 112
-64 225 -129 113 -65 229 -132 258 -148 l52 -29 0 66 c0 45 4 66 13 67 26 3
183 -2 197 -7 9 -2 62 -56 119 -120 l103 -116 -4 -159 c-2 -87 -2 -159 0 -159
3 0 38 20 78 45 41 24 74 42 74 39 0 -7 110 55 135 76 11 10 47 33 80 51 33
18 66 39 73 45 9 9 12 59 12 181 l-1 168 -37 41 c-20 22 -65 71 -99 108 l-61
69 -99 7 c-73 5 -105 3 -125 -7 -27 -13 -27 -13 -30 27 l-3 40 -209 -120
c-114 -66 -213 -120 -218 -120 -10 0 -497 276 -512 291 -17 16 -23 10 -35 -34z"/>
<path d="M1570 3261 c0 -7 -5 -9 -10 -6 -14 9 -38 -17 -46 -51 -4 -16 -12 -32
-18 -36 -8 -5 -7 -8 2 -8 8 0 10 -8 6 -24 -3 -13 -1 -27 5 -31 6 -3 9 -10 6
-15 -8 -13 50 -130 66 -130 5 0 9 -7 9 -15 0 -8 7 -15 15 -15 29 0 38 -40 33
-147 -4 -93 -3 -105 14 -114 16 -8 18 -6 18 21 0 17 -3 29 -7 27 -5 -3 -6 32
-3 76 l5 82 48 0 c38 0 51 4 60 20 6 11 12 22 12 25 0 3 4 10 8 17 7 11 9 52
5 96 -1 9 -5 17 -10 17 -5 0 -7 8 -3 19 3 12 0 21 -10 25 -8 3 -15 14 -15 25
0 10 -7 21 -15 25 -8 3 -15 11 -15 19 0 7 -14 24 -30 37 -17 14 -36 30 -43 36
-7 6 -23 15 -36 19 -18 5 -22 4 -16 -6 5 -8 -1 -5 -13 5 -14 12 -22 14 -22 7z"/>
<path d="M4890 2703 l0 -58 83 -47 c46 -27 86 -48 90 -48 5 0 7 28 5 61 l-3
61 -75 44 c-41 24 -81 43 -87 43 -9 1 -13 -17 -13 -56z"/>
<path d="M1977 2468 c-15 -8 -17 -28 -17 -137 0 -126 0 -129 25 -145 l25 -16
0 96 c0 72 3 95 13 92 15 -6 27 -226 12 -232 -5 -2 -22 5 -37 16 -16 11 -32
16 -38 13 -6 -4 -7 1 -3 12 6 16 5 17 -13 3 -10 -8 -16 -10 -12 -6 7 8 -18 35
-33 36 -3 0 -7 -26 -8 -59 l-2 -58 71 -42 c38 -23 74 -40 78 -37 4 2 6 -33 5
-78 -1 -71 1 -84 18 -94 18 -12 19 -8 19 122 0 74 3 141 6 150 16 41 24 -8 24
-144 0 -124 3 -151 16 -165 9 -9 21 -12 25 -8 5 5 10 116 11 248 2 154 7 239
13 238 6 -2 11 -46 13 -100 3 -96 11 -123 38 -123 11 0 14 24 14 118 0 145
-14 177 -105 231 -108 66 -140 80 -158 69z"/>
<path d="M6555 2432 c-44 -27 -123 -73 -175 -102 -52 -30 -113 -65 -135 -79
l-40 -26 93 -5 94 -5 56 -61 c32 -33 76 -81 98 -107 39 -43 44 -45 68 -34 14
7 26 15 26 18 0 3 24 16 53 30 28 13 55 27 58 32 6 9 55 37 109 64 19 9 37 19
40 23 3 3 21 14 42 24 85 45 84 43 20 115 -31 36 -75 84 -97 107 l-40 42 -95
6 -95 6 -80 -48z m285 -122 c23 -27 39 -54 36 -59 -6 -10 -127 -83 -200 -121
l-49 -25 -43 50 c-24 27 -43 53 -42 57 3 8 237 146 250 147 3 1 25 -21 48 -49z"/>
<path d="M6630 1984 c0 -14 -4 -23 -10 -19 -5 3 -8 11 -6 18 1 7 1 9 -1 5 -3
-5 -10 -8 -16 -8 -9 0 -11 -41 -9 -150 3 -136 9 -169 27 -140 4 6 21 17 38 25
56 27 77 42 70 49 -4 4 0 4 10 1 17 -7 110 39 146 73 10 9 46 32 80 51 58 33
61 36 61 73 0 41 -9 47 -34 22 -9 -8 -16 -12 -16 -7 0 4 -4 4 -8 -2 -8 -12
-83 -51 -92 -48 -3 1 -38 -20 -77 -46 l-72 -48 -44 56 c-36 47 -43 63 -39 89
2 18 2 32 -2 32 -3 0 -6 -12 -6 -26z"/>
<path d="M6300 1882 l0 -57 79 -47 c44 -25 82 -43 85 -40 3 3 6 29 6 57 l0 52
-80 47 c-44 25 -82 46 -85 46 -3 0 -5 -26 -5 -58z"/>
<path d="M9019 1473 c-6 -19 -29 -41 -67 -64 -31 -19 -60 -33 -64 -31 -4 1 -8
-2 -8 -8 0 -14 -59 -42 -72 -34 -6 4 -8 3 -5 -3 9 -14 -47 -37 -72 -30 -13 3
-18 1 -14 -9 2 -7 12 -10 21 -7 13 4 12 2 -3 -10 -11 -9 -24 -17 -30 -17 -5 0
-37 -16 -70 -36 -95 -58 -148 -85 -154 -78 -3 3 3 13 15 23 19 15 31 56 12 45
-4 -3 -8 -10 -8 -15 0 -6 -7 -17 -16 -26 -8 -9 -13 -21 -10 -28 5 -15 -20 -28
-35 -19 -5 3 -9 -2 -9 -10 0 -26 31 -18 115 30 475 275 487 283 498 326 9 31
-13 31 -24 1z"/>
<path d="M4028 1290 c-63 -37 -90 -59 -101 -83 -20 -43 -24 -257 -5 -257 9 0
8 -3 -2 -10 -8 -5 -10 -10 -4 -10 6 0 19 9 28 19 14 15 17 36 15 107 -2 71 1
89 12 89 11 0 15 -23 19 -98 3 -53 1 -97 -3 -97 -5 0 -5 -5 -2 -11 4 -5 6 -71
6 -145 -1 -74 0 -134 3 -134 2 0 12 7 20 16 13 13 16 42 16 157 0 132 10 195
24 157 3 -8 7 -78 8 -154 3 -133 4 -139 21 -122 15 16 17 43 17 277 0 142 3
259 7 259 4 0 17 -10 30 -22 19 -18 27 -20 41 -11 9 7 39 24 67 39 51 27 74
49 75 72 0 6 -5 12 -11 12 -5 0 -7 -5 -3 -12 4 -7 3 -8 -4 -4 -13 8 -72 -20
-72 -34 0 -6 -3 -9 -7 -9 -5 1 -10 0 -13 -1 -14 -5 -49 -6 -47 -1 1 4 -9 19
-23 34 l-25 27 -87 -50z"/>
<path d="M8523 383 c-27 -35 -28 -41 -34 -192 -3 -86 -9 -164 -13 -173 -6 -14
-3 -18 14 -18 11 0 18 5 15 10 -3 6 -1 10 4 10 6 0 11 9 11 20 0 23 30 90 41
90 4 0 12 -29 19 -65 l12 -65 87 1 86 1 -40 18 c-22 11 -49 17 -60 14 -14 -4
-16 -3 -7 4 11 7 10 10 -6 14 -13 4 -21 17 -25 44 -8 49 -9 219 -1 227 3 3 20
-3 37 -14 18 -10 39 -19 48 -19 18 0 49 31 49 49 0 17 -155 81 -197 81 -7 0
-25 -17 -40 -37z"/>
<path d="M5521 292 c-18 -34 -51 -176 -45 -195 10 -33 27 -12 46 59 11 38 23
73 29 79 18 18 9 -60 -16 -138 -14 -43 -25 -82 -25 -87 0 -6 41 -10 96 -10
l96 0 -7 28 c-15 59 -22 123 -14 128 12 7 28 -37 35 -102 6 -45 10 -54 26 -54
13 0 18 5 15 14 -3 8 -9 31 -13 50 -3 20 -9 34 -13 32 -3 -2 -7 10 -7 27 -2
45 -7 60 -29 89 -20 25 -95 75 -95 63 0 -3 -10 3 -22 15 -27 25 -44 25 -57 2z"/>
</g>
</svg>
